ffmpeg started on 2016-12-12 at 02:32:17
Report written to "Output/theora/results/ffmpeg/Tsintel2500k.log"
Command line:
Tools/ffmpeg/ffmpeg -i Output/theora/encoded/sintel2500k.mkv -c:v rawvideo -pix_fmt yuv420p Output/theora/transcoded/sintel2500k.yuv
ffmpeg version N-82227-gdb23fde Copyright (c) 2000-2016 the FFmpeg developers
  built with gcc 5.4.0 (Ubuntu 5.4.0-6ubuntu1~16.04.2) 20160609
  configuration: --prefix=/home/jaroslav/ffmpeg_build --pkg-config-flags=--static --extra-cflags=-I/home/jaroslav/ffmpeg_build/include --extra-ldflags=-L/home/jaroslav/ffmpeg_build/lib --bindir=/home/jaroslav/bin --enable-gpl --enable-libass --enable-libfdk-aac --enable-libfreetype --enable-libmp3lame --enable-libopus --enable-libtheora --enable-libvorbis --enable-libvpx --enable-libx264 --enable-libx265 --enable-nvenc --enable-libmfx --enable-libxvid --enable-libgsm --enable-libopencore-amrnb --enable-version3 --enable-nonfree
  libavutil      55. 35.100 / 55. 35.100
  libavcodec     57. 66.101 / 57. 66.101
  libavformat    57. 57.100 / 57. 57.100
  libavdevice    57.  2.100 / 57.  2.100
  libavfilter     6. 66.100 /  6. 66.100
  libswscale      4.  3.100 /  4.  3.100
  libswresample   2.  4.100 /  2.  4.100
  libpostproc    54.  2.100 / 54.  2.100
Input #0, matroska,webm, from 'Output/theora/encoded/sintel2500k.mkv':
  Metadata:
    ENCODER         : Lavf57.57.100
  Duration: 00:00:20.83, start: 0.000000, bitrate: 2742 kb/s
    Stream #0:0: Video: theora, yuv420p(progressive), 4096x1744 [SAR 1:1 DAR 256:109], 24 fps, 24 tbr, 1k tbn, 24 tbc (default)
    Metadata:
      ENCODER         : Lavc57.66.101 libtheora
      DURATION        : 00:00:20.834000000
Output #0, rawvideo, to 'Output/theora/transcoded/sintel2500k.yuv':
  Metadata:
    encoder         : Lavf57.57.100
    Stream #0:0: Video: rawvideo (I420 / 0x30323449), yuv420p, 4096x1744 [SAR 1:1 DAR 256:109], q=2-31, 200 kb/s, 24 fps, 24 tbn, 24 tbc (default)
    Metadata:
      DURATION        : 00:00:20.834000000
      encoder         : Lavc57.66.101 rawvideo
Stream mapping:
  Stream #0:0 -> #0:0 (theora (native) -> rawvideo (native))
Press [q] to stop, [?] for help
frame=   21 fps=0.0 q=-0.0 size=  219744kB time=00:00:00.87 bitrate=2057306.1kbits/s speed=1.67x    frame=   44 fps= 41 q=-0.0 size=  460416kB time=00:00:01.83 bitrate=2057306.5kbits/s dup=11 drop=0 speed=1.73x    frame=   67 fps= 41 q=-0.0 size=  701088kB time=00:00:02.79 bitrate=2057305.9kbits/s dup=26 drop=0 speed=1.73x    frame=   89 fps= 42 q=-0.0 size=  931296kB time=00:00:03.70 bitrate=2057306.3kbits/s dup=38 drop=0 speed=1.74x    frame=  110 fps= 42 q=-0.0 size= 1151040kB time=00:00:04.58 bitrate=2057306.3kbits/s dup=51 drop=0 speed=1.74x    frame=  132 fps= 42 q=-0.0 size= 1381248kB time=00:00:05.50 bitrate=2057306.1kbits/s dup=66 drop=0 speed=1.75x    frame=  152 fps= 42 q=-0.0 size= 1590528kB time=00:00:06.33 bitrate=2057306.2kbits/s dup=81 drop=0 speed=1.73x    frame=  172 fps= 41 q=-0.0 size= 1799808kB time=00:00:07.16 bitrate=2057306.0kbits/s dup=94 drop=0 speed=1.72x    frame=  194 fps= 41 q=-0.0 size= 2030016kB time=00:00:08.08 bitrate=2057306.2kbits/s dup=108 drop=0 speed=1.72x    frame=  219 fps= 42 q=-0.0 size= 2291616kB time=00:00:09.12 bitrate=2057306.1kbits/s dup=125 drop=0 speed=1.74x    frame=  240 fps= 42 q=-0.0 size= 2511360kB time=00:00:10.00 bitrate=2057306.1kbits/s dup=140 drop=0 speed=1.73x    frame=  261 fps= 41 q=-0.0 size= 2731104kB time=00:00:10.87 bitrate=2057306.1kbits/s dup=155 drop=0 speed=1.71x    frame=  284 fps= 41 q=-0.0 size= 2971776kB time=00:00:11.83 bitrate=2057306.2kbits/s dup=171 drop=0 speed=1.73x    frame=  304 fps= 41 q=-0.0 size= 3181056kB time=00:00:12.66 bitrate=2057306.1kbits/s dup=183 drop=0 speed=1.71x    frame=  321 fps= 41 q=-0.0 size= 3358944kB time=00:00:13.37 bitrate=2057306.1kbits/s dup=190 drop=0 speed=1.69x    frame=  340 fps= 40 q=-0.0 size= 3557760kB time=00:00:14.16 bitrate=2057306.1kbits/s dup=201 drop=0 speed=1.65x    frame=  357 fps= 39 q=-0.0 size= 3735648kB time=00:00:14.87 bitrate=2057306.1kbits/s dup=207 drop=0 speed=1.64x    frame=  378 fps= 39 q=-0.0 size= 3955392kB time=00:00:15.75 bitrate=2057306.1kbits/s dup=218 drop=0 speed=1.64x    frame=  398 fps= 39 q=-0.0 size= 4164672kB time=00:00:16.58 bitrate=2057306.2kbits/s dup=226 drop=0 speed=1.64x    frame=  415 fps= 39 q=-0.0 size= 4342560kB time=00:00:17.29 bitrate=2057306.1kbits/s dup=236 drop=0 speed=1.62x    frame=  429 fps= 38 q=-0.0 size= 4489056kB time=00:00:17.87 bitrate=2057306.1kbits/s dup=244 drop=0 speed=1.58x    frame=  445 fps= 38 q=-0.0 size= 4656480kB time=00:00:18.54 bitrate=2057306.1kbits/s dup=251 drop=0 speed=1.56x    frame=  464 fps= 37 q=-0.0 size= 4855296kB time=00:00:19.33 bitrate=2057306.1kbits/s dup=262 drop=0 speed=1.56x    frame=  480 fps= 37 q=-0.0 size= 5022720kB time=00:00:20.00 bitrate=2057306.1kbits/s dup=268 drop=0 speed=1.55x    frame=  493 fps= 36 q=-0.0 size= 5158752kB time=00:00:20.54 bitrate=2057306.1kbits/s dup=273 drop=0 speed=1.52x    frame=  500 fps= 36 q=-0.0 Lsize= 5232000kB time=00:00:20.83 bitrate=2057306.1kbits/s dup=277 drop=0 speed=1.51x    
video:5232000kB audio:0kB subtitle:0kB other streams:0kB global headers:0kB muxing overhead: 0.000000%
